<svg height="25.732" viewBox="0 0 20.333 25.732" width="20.333" xmlns="http://www.w3.org/2000/svg"><path d="m4.091 19.774a10.872 10.872 0 0 0 -1.485 5.489 1.269 1.269 0 1 1 -2.539 0 13.417 13.417 0 0 1 2.266-7.463 8.889 8.889 0 0 1 .079-9.823q2.745-4.069 17.988-7.177-.51 13.046-3.254 17.115a8.886 8.886 0 0 1 -13.055 1.859zm1.531-2.031a6.347 6.347 0 0 0 9.419-1.249c1.275-1.889 2.205-6.112 2.646-12.5-7.544 1.757-12.013 3.689-13.171 5.406a6.345 6.345 0 0 0 -.453 6.312 13.532 13.532 0 0 1 1.777-1.475l.645-.447a1.269 1.269 0 0 1 1.446 2.087l-.644.447a10.873 10.873 0 0 0 -1.666 1.421z" fill="#ff3000" transform="translate(-.067 -.801)"/></svg>